# xmcd
#
# Track frame offsets:
#	183
#	13830
#	27708
#	40365
#	53678
#	66515
#	80295
#	94410
#	107920
#	120670
#	134088
#	147705
#	160743
#	174475
#	187840
#	199535
#	216358
#	227720
#	242308
#	258413
#
# Disc length: 3754 seconds
#
# Revision: 1
# Processed by: cddbd v1.4PL0 Copyright (c) Steve Scherf et al.
# Submitted via: audiograbber 1.80
#
DISCID=260ea814
DTITLE=B. B. King - Greatest Hits 1951 - 1960
DYEAR=1900
DGENRE=
TTITLE0=Three o'clock blues
TTITLE1=You know I love you
TTITLE2=Boogie Woogie Woman
TTITLE3=Woke up this morning
TTITLE4=Please love me
TTITLE5=You upset me baby
TTITLE6=Whole lotta love
TTITLE7=Sneaking around
TTITLE8=Every day (I have the blues)
TTITLE9=Crying won't help you
TTITLE10=Sweet little angel
TTITLE11=Bad Luck
TTITLE12=I want to get married
TTITLE13=Troubles, troubles, troubles
TTITLE14=Please accept my love
TTITLE15=Sweet 16 part 1
TTITLE16=Sweet 16 part 2
TTITLE17=(I've) Got a right to love my baby
TTITLE18=My fault
TTITLE19=You done lost your good thing now
EXTD=
EXTT0=
EXTT1=
EXTT2=
EXTT3=
EXTT4=
EXTT5=
EXTT6=
EXTT7=
EXTT8=
EXTT9=
EXTT10=
EXTT11=
EXTT12=
EXTT13=
EXTT14=
EXTT15=
EXTT16=
EXTT17=
EXTT18=
EXTT19=
PLAYORDER=
